<svg preserveAspectRatio="none" width="100%" height="100%" overflow="visible" style="display: block;" viewBox="0 0 12.8013 12.7978" fill="none" xmlns="http://www.w3.org/2000/svg">
<path id="Vector" d="M9.2 5.2C9.2 2.99 7.41 1.2 5.2 1.2C2.99 1.2 1.2 2.99 1.2 5.2C1.2 7.41 2.99 9.2 5.2 9.2C7.41 9.2 9.2 7.41 9.2 5.2ZM8.4275 9.2775C7.5425 9.98 6.42 10.4 5.2 10.4C2.3275 10.4 0 8.0725 0 5.2C0 2.3275 2.3275 0 5.2 0C8.0725 0 10.4 2.3275 10.4 5.2C10.4 6.42 9.98 7.5425 9.2775 8.4275L12.625 11.775C12.86 12.01 12.86 12.39 12.625 12.6225C12.39 12.855 12.01 12.8575 11.7775 12.6225L8.4275 9.2775Z" fill="var(--fill-0, #5A5E66)"/>
</svg>
